<svg xmlns="http://www.w3.org/2000/svg" viewBox="45 95 370 250"><ellipse cx="230.0" cy="292.0" rx="150.0" ry="30.0" fill="#000000" opacity="0.06"/><ellipse cx="230.0" cy="256.0" rx="158.0" ry="60.0" fill="#fffdf7" opacity="1.00" stroke="#d8cdb0" stroke-width="2"/><ellipse cx="230.0" cy="253.0" rx="113.8" ry="43.2" fill="none" opacity="1.00" stroke="#ece2cb" stroke-width="1"/><path d="M 150 236 Q 176 244 202 236 L 182 189.46256683038837 Q 176 182.46256683038837 170 189.46256683038837 Z" fill="#f0e6d2" opacity="1.00" stroke="#3a2f25" stroke-width="1.1" stroke-linejoin="round" stroke-linecap="round"/><circle cx="196" cy="221" r="1.1" fill="#cbb085" opacity="0.85"/><circle cx="169" cy="207" r="1.1" fill="#cbb085" opacity="0.85"/><circle cx="157" cy="232" r="1.1" fill="#cbb085" opacity="0.85"/><circle cx="157" cy="205" r="1.1" fill="#cbb085" opacity="0.85"/><circle cx="178" cy="205" r="1.1" fill="#cbb085" opacity="0.85"/><circle cx="184" cy="233" r="1.1" fill="#cbb085" opacity="0.85"/><circle cx="166" cy="229" r="1.1" fill="#cbb085" opacity="0.85"/><circle cx="160" cy="209" r="1.1" fill="#cbb085" opacity="0.85"/><circle cx="163" cy="220" r="1.1" fill="#cbb085" opacity="0.85"/><circle cx="189" cy="232" r="1.1" fill="#cbb085" opacity="0.85"/><circle cx="182" cy="220" r="1.1" fill="#cbb085" opacity="0.85"/><circle cx="189" cy="233" r="1.1" fill="#cbb085" opacity="0.85"/><circle cx="191" cy="229" r="1.1" fill="#cbb085" opacity="0.85"/><circle cx="190" cy="227" r="1.1" fill="#cbb085" opacity="0.85"/><circle cx="194" cy="200" r="1.1" fill="#cbb085" opacity="0.85"/><circle cx="174" cy="225" r="1.1" fill="#cbb085" opacity="0.85"/><path d="M 169 198.46256683038837 Q 176 182.46256683038837 183 198.46256683038837 Z" fill="#b07d4a" opacity="1.00"/><path d="M 206 236 Q 232 244 258 236 L 238 183.16567575917483 Q 232 176.16567575917483 226 183.16567575917483 Z" fill="#f0e6d2" opacity="1.00" stroke="#3a2f25" stroke-width="1.1" stroke-linejoin="round" stroke-linecap="round"/><circle cx="250" cy="228" r="1.1" fill="#cbb085" opacity="0.85"/><circle cx="236" cy="194" r="1.1" fill="#cbb085" opacity="0.85"/><circle cx="231" cy="211" r="1.1" fill="#cbb085" opacity="0.85"/><circle cx="228" cy="230" r="1.1" fill="#cbb085" opacity="0.85"/><circle cx="236" cy="209" r="1.1" fill="#cbb085" opacity="0.85"/><circle cx="241" cy="233" r="1.1" fill="#cbb085" opacity="0.85"/><circle cx="212" cy="210" r="1.1" fill="#cbb085" opacity="0.85"/><circle cx="235" cy="219" r="1.1" fill="#cbb085" opacity="0.85"/><circle cx="241" cy="199" r="1.1" fill="#cbb085" opacity="0.85"/><circle cx="228" cy="203" r="1.1" fill="#cbb085" opacity="0.85"/><circle cx="217" cy="194" r="1.1" fill="#cbb085" opacity="0.85"/><circle cx="229" cy="193" r="1.1" fill="#cbb085" opacity="0.85"/><circle cx="220" cy="196" r="1.1" fill="#cbb085" opacity="0.85"/><circle cx="249" cy="214" r="1.1" fill="#cbb085" opacity="0.85"/><circle cx="225" cy="218" r="1.1" fill="#cbb085" opacity="0.85"/><circle cx="245" cy="219" r="1.1" fill="#cbb085" opacity="0.85"/><path d="M 225 192.16567575917483 Q 232 176.16567575917483 239 192.16567575917483 Z" fill="#b07d4a" opacity="1.00"/><path d="M 260 236 Q 286 244 312 236 L 292 189.4393552419026 Q 286 182.4393552419026 280 189.4393552419026 Z" fill="#f0e6d2" opacity="1.00" stroke="#3a2f25" stroke-width="1.1" stroke-linejoin="round" stroke-linecap="round"/><circle cx="278" cy="224" r="1.1" fill="#cbb085" opacity="0.85"/><circle cx="267" cy="206" r="1.1" fill="#cbb085" opacity="0.85"/><circle cx="275" cy="199" r="1.1" fill="#cbb085" opacity="0.85"/><circle cx="267" cy="224" r="1.1" fill="#cbb085" opacity="0.85"/><circle cx="304" cy="208" r="1.1" fill="#cbb085" opacity="0.85"/><circle cx="270" cy="220" r="1.1" fill="#cbb085" opacity="0.85"/><circle cx="278" cy="207" r="1.1" fill="#cbb085" opacity="0.85"/><circle cx="297" cy="220" r="1.1" fill="#cbb085" opacity="0.85"/><circle cx="301" cy="197" r="1.1" fill="#cbb085" opacity="0.85"/><circle cx="271" cy="223" r="1.1" fill="#cbb085" opacity="0.85"/><circle cx="303" cy="202" r="1.1" fill="#cbb085" opacity="0.85"/><circle cx="273" cy="201" r="1.1" fill="#cbb085" opacity="0.85"/><circle cx="281" cy="212" r="1.1" fill="#cbb085" opacity="0.85"/><circle cx="304" cy="226" r="1.1" fill="#cbb085" opacity="0.85"/><circle cx="293" cy="232" r="1.1" fill="#cbb085" opacity="0.85"/><circle cx="303" cy="225" r="1.1" fill="#cbb085" opacity="0.85"/><path d="M 279 198.4393552419026 Q 286 182.4393552419026 293 198.4393552419026 Z" fill="#b07d4a" opacity="1.00"/></svg>