<svg xmlns="http://www.w3.org/2000/svg" viewBox="45 95 370 250"><ellipse cx="230.0" cy="292.0" rx="122.0" ry="22.0" fill="#000000" opacity="0.06"/><path d="M 110 214 Q 230 310 350 214 Z" fill="#e2d4b8" opacity="1.00" stroke="#cbbf9f" stroke-width="2" stroke-linejoin="round" stroke-linecap="round"/><ellipse cx="230.0" cy="214.0" rx="120.0" ry="46.0" fill="#e9ddc6" opacity="1.00" stroke="#cbbf9f" stroke-width="2"/><path d="M 319.1 208.0 Q 319.1 208.0 309.2 217.1 Q 299.3 226.2 295.8 239.6 Q 292.2 253.1 266.9 254.4 Q 241.6 255.7 219.3 253.6 Q 196.9 251.6 184.1 242.8 Q 171.3 234.0 160.2 226.0 Q 149.0 218.0 138.2 206.7 Q 127.3 195.3 147.8 188.0 Q 168.3 180.7 179.8 168.8 Q 191.3 157.0 215.4 163.0 Q 239.5 169.1 257.0 172.4 Q 274.6 175.7 298.8 179.6 Q 323.0 183.6 321.0 195.8 Z" fill="#fbf5e6" opacity="1.00"/><ellipse cx="309" cy="188" rx="3" ry="1.4" fill="#efe6cf" stroke="#e0d3b4" stroke-width="0.5" transform="rotate(41 309 188)"/><ellipse cx="274" cy="222" rx="3" ry="1.4" fill="#efe6cf" stroke="#e0d3b4" stroke-width="0.5" transform="rotate(9 274 222)"/><ellipse cx="233" cy="196" rx="3" ry="1.4" fill="#efe6cf" stroke="#e0d3b4" stroke-width="0.5" transform="rotate(64 233 196)"/><ellipse cx="188" cy="196" rx="3" ry="1.4" fill="#efe6cf" stroke="#e0d3b4" stroke-width="0.5" transform="rotate(86 188 196)"/><ellipse cx="158" cy="196" rx="3" ry="1.4" fill="#efe6cf" stroke="#e0d3b4" stroke-width="0.5" transform="rotate(155 158 196)"/><ellipse cx="305" cy="203" rx="3" ry="1.4" fill="#efe6cf" stroke="#e0d3b4" stroke-width="0.5" transform="rotate(116 305 203)"/><ellipse cx="256" cy="213" rx="3" ry="1.4" fill="#efe6cf" stroke="#e0d3b4" stroke-width="0.5" transform="rotate(112 256 213)"/><ellipse cx="238" cy="192" rx="3" ry="1.4" fill="#efe6cf" stroke="#e0d3b4" stroke-width="0.5" transform="rotate(66 238 192)"/><ellipse cx="165" cy="197" rx="3" ry="1.4" fill="#efe6cf" stroke="#e0d3b4" stroke-width="0.5" transform="rotate(27 165 197)"/><ellipse cx="302" cy="198" rx="3" ry="1.4" fill="#efe6cf" stroke="#e0d3b4" stroke-width="0.5" transform="rotate(9 302 198)"/><ellipse cx="234" cy="191" rx="3" ry="1.4" fill="#efe6cf" stroke="#e0d3b4" stroke-width="0.5" transform="rotate(101 234 191)"/><ellipse cx="149" cy="194" rx="3" ry="1.4" fill="#efe6cf" stroke="#e0d3b4" stroke-width="0.5" transform="rotate(74 149 194)"/><ellipse cx="268" cy="199" rx="3" ry="1.4" fill="#efe6cf" stroke="#e0d3b4" stroke-width="0.5" transform="rotate(71 268 199)"/><ellipse cx="226" cy="197" rx="3" ry="1.4" fill="#efe6cf" stroke="#e0d3b4" stroke-width="0.5" transform="rotate(176 226 197)"/><ellipse cx="279" cy="202" rx="3" ry="1.4" fill="#efe6cf" stroke="#e0d3b4" stroke-width="0.5" transform="rotate(6 279 202)"/><ellipse cx="176" cy="192" rx="3" ry="1.4" fill="#efe6cf" stroke="#e0d3b4" stroke-width="0.5" transform="rotate(40 176 192)"/><ellipse cx="310" cy="220" rx="3" ry="1.4" fill="#efe6cf" stroke="#e0d3b4" stroke-width="0.5" transform="rotate(88 310 220)"/><ellipse cx="239" cy="220" rx="3" ry="1.4" fill="#efe6cf" stroke="#e0d3b4" stroke-width="0.5" transform="rotate(170 239 220)"/><ellipse cx="278" cy="212" rx="3" ry="1.4" fill="#efe6cf" stroke="#e0d3b4" stroke-width="0.5" transform="rotate(36 278 212)"/><ellipse cx="270" cy="199" rx="3" ry="1.4" fill="#efe6cf" stroke="#e0d3b4" stroke-width="0.5" transform="rotate(71 270 199)"/><ellipse cx="207" cy="221" rx="3" ry="1.4" fill="#efe6cf" stroke="#e0d3b4" stroke-width="0.5" transform="rotate(157 207 221)"/><ellipse cx="306" cy="199" rx="3" ry="1.4" fill="#efe6cf" stroke="#e0d3b4" stroke-width="0.5" transform="rotate(104 306 199)"/><ellipse cx="192" cy="188" rx="3" ry="1.4" fill="#efe6cf" stroke="#e0d3b4" stroke-width="0.5" transform="rotate(16 192 188)"/><ellipse cx="219" cy="199" rx="3" ry="1.4" fill="#efe6cf" stroke="#e0d3b4" stroke-width="0.5" transform="rotate(115 219 199)"/><ellipse cx="259" cy="201" rx="3" ry="1.4" fill="#efe6cf" stroke="#e0d3b4" stroke-width="0.5" transform="rotate(170 259 201)"/><ellipse cx="245" cy="219" rx="3" ry="1.4" fill="#efe6cf" stroke="#e0d3b4" stroke-width="0.5" transform="rotate(141 245 219)"/><ellipse cx="168" cy="203" rx="3" ry="1.4" fill="#efe6cf" stroke="#e0d3b4" stroke-width="0.5" transform="rotate(108 168 203)"/><ellipse cx="255" cy="220" rx="3" ry="1.4" fill="#efe6cf" stroke="#e0d3b4" stroke-width="0.5" transform="rotate(83 255 220)"/><ellipse cx="273" cy="214" rx="3" ry="1.4" fill="#efe6cf" stroke="#e0d3b4" stroke-width="0.5" transform="rotate(33 273 214)"/><ellipse cx="226" cy="207" rx="3" ry="1.4" fill="#efe6cf" stroke="#e0d3b4" stroke-width="0.5" transform="rotate(118 226 207)"/><ellipse cx="201" cy="201" rx="3" ry="1.4" fill="#efe6cf" stroke="#e0d3b4" stroke-width="0.5" transform="rotate(44 201 201)"/><ellipse cx="309" cy="220" rx="3" ry="1.4" fill="#efe6cf" stroke="#e0d3b4" stroke-width="0.5" transform="rotate(123 309 220)"/><ellipse cx="303" cy="213" rx="3" ry="1.4" fill="#efe6cf" stroke="#e0d3b4" stroke-width="0.5" transform="rotate(178 303 213)"/><ellipse cx="202" cy="217" rx="3" ry="1.4" fill="#efe6cf" stroke="#e0d3b4" stroke-width="0.5" transform="rotate(84 202 217)"/><ellipse cx="289" cy="206" rx="3" ry="1.4" fill="#efe6cf" stroke="#e0d3b4" stroke-width="0.5" transform="rotate(33 289 206)"/><ellipse cx="246" cy="205" rx="3" ry="1.4" fill="#efe6cf" stroke="#e0d3b4" stroke-width="0.5" transform="rotate(40 246 205)"/><ellipse cx="226" cy="193" rx="3" ry="1.4" fill="#efe6cf" stroke="#e0d3b4" stroke-width="0.5" transform="rotate(41 226 193)"/><ellipse cx="283" cy="218" rx="3" ry="1.4" fill="#efe6cf" stroke="#e0d3b4" stroke-width="0.5" transform="rotate(12 283 218)"/><ellipse cx="298" cy="202" rx="3" ry="1.4" fill="#efe6cf" stroke="#e0d3b4" stroke-width="0.5" transform="rotate(65 298 202)"/><ellipse cx="182" cy="213" rx="3" ry="1.4" fill="#efe6cf" stroke="#e0d3b4" stroke-width="0.5" transform="rotate(123 182 213)"/><ellipse cx="224" cy="198" rx="3" ry="1.4" fill="#efe6cf" stroke="#e0d3b4" stroke-width="0.5" transform="rotate(67 224 198)"/><ellipse cx="272" cy="224" rx="3" ry="1.4" fill="#efe6cf" stroke="#e0d3b4" stroke-width="0.5" transform="rotate(85 272 224)"/><ellipse cx="151" cy="196" rx="3" ry="1.4" fill="#efe6cf" stroke="#e0d3b4" stroke-width="0.5" transform="rotate(95 151 196)"/><ellipse cx="153" cy="187" rx="3" ry="1.4" fill="#efe6cf" stroke="#e0d3b4" stroke-width="0.5" transform="rotate(16 153 187)"/><ellipse cx="209" cy="195" rx="3" ry="1.4" fill="#efe6cf" stroke="#e0d3b4" stroke-width="0.5" transform="rotate(67 209 195)"/><ellipse cx="220" cy="210" rx="3" ry="1.4" fill="#efe6cf" stroke="#e0d3b4" stroke-width="0.5" transform="rotate(163 220 210)"/><rect x="275" y="215" width="8" height="8" rx="1.5" fill="#d97b2e" transform="rotate(30 275 215)"/><rect x="242" y="212" width="8" height="8" rx="1.5" fill="#d97b2e" transform="rotate(59 242 212)"/><rect x="167" y="207" width="8" height="8" rx="1.5" fill="#d97b2e" transform="rotate(11 167 207)"/><rect x="272" y="195" width="8" height="8" rx="1.5" fill="#d97b2e" transform="rotate(89 272 195)"/><rect x="243" y="210" width="8" height="8" rx="1.5" fill="#d97b2e" transform="rotate(48 243 210)"/><rect x="238" y="214" width="8" height="8" rx="1.5" fill="#d97b2e" transform="rotate(82 238 214)"/><rect x="193" y="193" width="8" height="8" rx="1.5" fill="#d97b2e" transform="rotate(18 193 193)"/><rect x="175" y="201" width="8" height="8" rx="1.5" fill="#d97b2e" transform="rotate(61 175 201)"/><rect x="164" y="198" width="8" height="8" rx="1.5" fill="#d97b2e" transform="rotate(19 164 198)"/><ellipse cx="203.0" cy="199.0" rx="3.6" ry="3.6" fill="#7f9b53" opacity="1.00"/><ellipse cx="208.9" cy="200.5" rx="3.6" ry="3.6" fill="#7f9b53" opacity="1.00"/><ellipse cx="192.7" cy="212.3" rx="3.6" ry="3.6" fill="#7f9b53" opacity="1.00"/><ellipse cx="187.1" cy="190.8" rx="3.6" ry="3.6" fill="#7f9b53" opacity="1.00"/><ellipse cx="253.1" cy="199.9" rx="3.6" ry="3.6" fill="#7f9b53" opacity="1.00"/><ellipse cx="198.6" cy="201.3" rx="3.6" ry="3.6" fill="#7f9b53" opacity="1.00"/><g transform="translate(230.0 172.0) rotate(0) scale(1.00)"><path d="M0 0 Q 11 -16 0 -32 Q -11 -16 0 0 Z" fill="#7f9b53"/><path d="M0 -3 L0 -27" stroke="#5b703c" stroke-width="1" fill="none"/></g></svg>