<svg xmlns="http://www.w3.org/2000/svg" viewBox="0 0 680 950">
<g fill="none" stroke="#f4ead2" stroke-width="1.6" stroke-linejoin="round" stroke-linecap="round" opacity="0.55">
<g transform="translate(89 86) rotate(-12) scale(1.17)"><rect x="-16" y="-22" width="32" height="44" rx="6"/><rect x="-10" y="-30" width="20" height="10"/></g>
<g transform="translate(197 48) rotate(-1) scale(1.43)"><rect x="-16" y="-22" width="32" height="44" rx="6"/><rect x="-10" y="-30" width="20" height="10"/></g>
<g transform="translate(356 34) rotate(-3) scale(1.32)"><path d="M-22 -10 Q 0 -28 22 -10 Q 0 18 -22 -10 Z"/><path d="M0 -22 L0 12"/></g>
<g transform="translate(452 55) rotate(-24) scale(1.27)"><circle cx="0" cy="0" r="26"/><circle cx="0" cy="0" r="17"/></g>
<g transform="translate(605 49) rotate(-4) scale(0.87)"><path d="M-22 -10 Q 0 -28 22 -10 Q 0 18 -22 -10 Z"/><path d="M0 -22 L0 12"/></g>
<g transform="translate(94 207) rotate(-8) scale(1.29)"><rect x="-16" y="-22" width="32" height="44" rx="6"/><rect x="-10" y="-30" width="20" height="10"/></g>
<g transform="translate(335 232) rotate(21) scale(0.92)"><path d="M-18 22 Q -26 -10 0 -24 Q 26 -10 18 22 Z"/></g>
<g transform="translate(589 192) rotate(11) scale(1.31)"><rect x="-16" y="-22" width="32" height="44" rx="6"/><rect x="-10" y="-30" width="20" height="10"/></g>
<g transform="translate(93 318) rotate(-11) scale(1.48)"><rect x="-16" y="-22" width="32" height="44" rx="6"/><rect x="-10" y="-30" width="20" height="10"/></g>
<g transform="translate(204 345) rotate(-23) scale(1.01)"><rect x="-16" y="-22" width="32" height="44" rx="6"/><rect x="-10" y="-30" width="20" height="10"/></g>
<g transform="translate(320 343) rotate(10) scale(1.29)"><path d="M-4 -26 L-4 26 M4 -26 L4 26 M-12 -26 L-12 -6 Q -12 4 -4 4"/></g>
<g transform="translate(486 313) rotate(-17) scale(1.40)"><path d="M-4 -26 L-4 26 M4 -26 L4 26 M-12 -26 L-12 -6 Q -12 4 -4 4"/></g>
<g transform="translate(584 308) rotate(10) scale(1.49)"><ellipse cx="0" cy="0" rx="24" ry="14"/><path d="M-24 0 Q 0 22 24 0"/></g>
<g transform="translate(77 452) rotate(-14) scale(0.86)"><path d="M-22 -10 Q 0 -28 22 -10 Q 0 18 -22 -10 Z"/><path d="M0 -22 L0 12"/></g>
<g transform="translate(226 457) rotate(1) scale(1.47)"><ellipse cx="0" cy="0" rx="24" ry="14"/><path d="M-24 0 Q 0 22 24 0"/></g>
<g transform="translate(365 486) rotate(5) scale(1.32)"><rect x="-16" y="-22" width="32" height="44" rx="6"/><rect x="-10" y="-30" width="20" height="10"/></g>
<g transform="translate(495 501) rotate(12) scale(1.38)"><ellipse cx="0" cy="0" rx="24" ry="14"/><path d="M-24 0 Q 0 22 24 0"/></g>
<g transform="translate(594 506) rotate(-1) scale(1.09)"><ellipse cx="0" cy="0" rx="24" ry="14"/><path d="M-24 0 Q 0 22 24 0"/></g>
<g transform="translate(68 610) rotate(-7) scale(1.07)"><ellipse cx="0" cy="0" rx="24" ry="14"/><path d="M-24 0 Q 0 22 24 0"/></g>
<g transform="translate(221 599) rotate(5) scale(1.37)"><path d="M-18 22 Q -26 -10 0 -24 Q 26 -10 18 22 Z"/></g>
<g transform="translate(345 635) rotate(15) scale(1.37)"><path d="M-4 -26 L-4 26 M4 -26 L4 26 M-12 -26 L-12 -6 Q -12 4 -4 4"/></g>
<g transform="translate(503 582) rotate(18) scale(1.14)"><path d="M-4 -26 L-4 26 M4 -26 L4 26 M-12 -26 L-12 -6 Q -12 4 -4 4"/></g>
<g transform="translate(589 619) rotate(-8) scale(0.90)"><path d="M-22 -10 Q 0 -28 22 -10 Q 0 18 -22 -10 Z"/><path d="M0 -22 L0 12"/></g>
<g transform="translate(95 757) rotate(7) scale(1.04)"><path d="M-18 22 Q -26 -10 0 -24 Q 26 -10 18 22 Z"/></g>
<g transform="translate(202 714) rotate(-6) scale(1.12)"><path d="M-22 -10 Q 0 -28 22 -10 Q 0 18 -22 -10 Z"/><path d="M0 -22 L0 12"/></g>
<g transform="translate(325 762) rotate(24) scale(1.48)"><rect x="-16" y="-22" width="32" height="44" rx="6"/><rect x="-10" y="-30" width="20" height="10"/></g>
<g transform="translate(447 714) rotate(-18) scale(1.32)"><path d="M-22 -10 Q 0 -28 22 -10 Q 0 18 -22 -10 Z"/><path d="M0 -22 L0 12"/></g>
<g transform="translate(612 741) rotate(17) scale(1.49)"><path d="M-18 22 Q -26 -10 0 -24 Q 26 -10 18 22 Z"/></g>
<g transform="translate(69 863) rotate(7) scale(1.11)"><ellipse cx="0" cy="0" rx="24" ry="14"/><path d="M-24 0 Q 0 22 24 0"/></g>
<g transform="translate(214 877) rotate(12) scale(0.93)"><path d="M-22 -10 Q 0 -28 22 -10 Q 0 18 -22 -10 Z"/><path d="M0 -22 L0 12"/></g>
<g transform="translate(328 907) rotate(-9) scale(1.46)"><path d="M-18 22 Q -26 -10 0 -24 Q 26 -10 18 22 Z"/></g>
<g transform="translate(480 857) rotate(3) scale(1.40)"><ellipse cx="0" cy="0" rx="24" ry="14"/><path d="M-24 0 Q 0 22 24 0"/></g>
<g transform="translate(640 887) rotate(-16) scale(1.41)"><path d="M-18 22 Q -26 -10 0 -24 Q 26 -10 18 22 Z"/></g>
</g></svg>