<svg xmlns="http://www.w3.org/2000/svg" viewBox="45 95 370 250"><ellipse cx="230.0" cy="262.0" rx="110.0" ry="20.0" fill="#000000" opacity="0.06"/><ellipse cx="230.0" cy="246.0" rx="118.0" ry="24.0" fill="#fffdf7" opacity="1.00" stroke="#d8cdb0" stroke-width="2"/><path d="M 168 196 L 292 196 Q 288 240 260 246 L 200 246 Q 172 240 168 196 Z" fill="#fdfaf3" opacity="1.00" stroke="#3a2f25" stroke-width="1.8" stroke-linejoin="round" stroke-linecap="round"/><ellipse cx="230.0" cy="196.0" rx="62.0" ry="15.0" fill="#c98a3a" opacity="1.00"/><ellipse cx="230.0" cy="196.0" rx="62.0" ry="15.0" fill="none" opacity="0.85" stroke="#91632a" stroke-width="1.2"/><ellipse cx="210.0" cy="193.0" rx="20.0" ry="4.5" fill="#e0ab64" opacity="0.70"/><path d="M 208 190 q 6 -5 12 0" fill="none" stroke="#91632a" stroke-width="1.2" opacity="0.6"/><path d="M 236 199 q 8 -4 16 1" fill="none" stroke="#91632a" stroke-width="1.2" opacity="0.6"/><g transform="translate(230 172)"><path d="M0 0 Q 11 -16 0 -32 Q -11 -16 0 0 Z" fill="#7f9b53"/><path d="M0 -3 L0 -27" stroke="#5b703c" stroke-width="1" fill="none"/></g></svg>
