<svg xmlns="http://www.w3.org/2000/svg" viewBox="45 95 370 250"><ellipse cx="230.0" cy="292.0" rx="122.0" ry="22.0" fill="#000000" opacity="0.06"/><path d="M 110 214 Q 230 310 350 214 Z" fill="#e2d4b8" opacity="1.00" stroke="#cbbf9f" stroke-width="2" stroke-linejoin="round" stroke-linecap="round"/><ellipse cx="230.0" cy="214.0" rx="120.0" ry="46.0" fill="#e9ddc6" opacity="1.00" stroke="#cbbf9f" stroke-width="2"/><path d="M 316.1 208.0 Q 316.1 208.0 313.2 218.5 Q 310.2 229.1 295.4 236.8 Q 280.5 244.6 259.9 245.5 Q 239.4 246.5 219.3 247.5 Q 199.2 248.6 174.6 246.0 Q 150.1 243.4 145.4 231.2 Q 140.8 219.0 146.4 208.7 Q 152.1 198.4 161.5 190.1 Q 170.9 181.8 185.9 175.8 Q 201.0 169.7 221.5 164.1 Q 242.0 158.5 265.3 162.0 Q 288.5 165.6 302.5 175.5 Q 316.4 185.3 316.3 196.7 Z" fill="#fbf5e6" opacity="1.00"/><ellipse cx="259" cy="207" rx="3" ry="1.4" fill="#efe6cf" stroke="#e0d3b4" stroke-width="0.5" transform="rotate(76 259 207)"/><ellipse cx="237" cy="209" rx="3" ry="1.4" fill="#efe6cf" stroke="#e0d3b4" stroke-width="0.5" transform="rotate(157 237 209)"/><ellipse cx="205" cy="222" rx="3" ry="1.4" fill="#efe6cf" stroke="#e0d3b4" stroke-width="0.5" transform="rotate(67 205 222)"/><ellipse cx="305" cy="189" rx="3" ry="1.4" fill="#efe6cf" stroke="#e0d3b4" stroke-width="0.5" transform="rotate(107 305 189)"/><ellipse cx="184" cy="197" rx="3" ry="1.4" fill="#efe6cf" stroke="#e0d3b4" stroke-width="0.5" transform="rotate(167 184 197)"/><ellipse cx="201" cy="188" rx="3" ry="1.4" fill="#efe6cf" stroke="#e0d3b4" stroke-width="0.5" transform="rotate(48 201 188)"/><ellipse cx="256" cy="203" rx="3" ry="1.4" fill="#efe6cf" stroke="#e0d3b4" stroke-width="0.5" transform="rotate(177 256 203)"/><ellipse cx="149" cy="224" rx="3" ry="1.4" fill="#efe6cf" stroke="#e0d3b4" stroke-width="0.5" transform="rotate(166 149 224)"/><ellipse cx="209" cy="201" rx="3" ry="1.4" fill="#efe6cf" stroke="#e0d3b4" stroke-width="0.5" transform="rotate(127 209 201)"/><ellipse cx="205" cy="188" rx="3" ry="1.4" fill="#efe6cf" stroke="#e0d3b4" stroke-width="0.5" transform="rotate(136 205 188)"/><ellipse cx="208" cy="206" rx="3" ry="1.4" fill="#efe6cf" stroke="#e0d3b4" stroke-width="0.5" transform="rotate(68 208 206)"/><ellipse cx="212" cy="215" rx="3" ry="1.4" fill="#efe6cf" stroke="#e0d3b4" stroke-width="0.5" transform="rotate(94 212 215)"/><ellipse cx="154" cy="186" rx="3" ry="1.4" fill="#efe6cf" stroke="#e0d3b4" stroke-width="0.5" transform="rotate(41 154 186)"/><ellipse cx="206" cy="223" rx="3" ry="1.4" fill="#efe6cf" stroke="#e0d3b4" stroke-width="0.5" transform="rotate(8 206 223)"/><ellipse cx="223" cy="209" rx="3" ry="1.4" fill="#efe6cf" stroke="#e0d3b4" stroke-width="0.5" transform="rotate(5 223 209)"/><ellipse cx="214" cy="215" rx="3" ry="1.4" fill="#efe6cf" stroke="#e0d3b4" stroke-width="0.5" transform="rotate(20 214 215)"/><ellipse cx="208" cy="196" rx="3" ry="1.4" fill="#efe6cf" stroke="#e0d3b4" stroke-width="0.5" transform="rotate(161 208 196)"/><ellipse cx="312" cy="194" rx="3" ry="1.4" fill="#efe6cf" stroke="#e0d3b4" stroke-width="0.5" transform="rotate(81 312 194)"/><ellipse cx="184" cy="200" rx="3" ry="1.4" fill="#efe6cf" stroke="#e0d3b4" stroke-width="0.5" transform="rotate(165 184 200)"/><ellipse cx="157" cy="189" rx="3" ry="1.4" fill="#efe6cf" stroke="#e0d3b4" stroke-width="0.5" transform="rotate(165 157 189)"/><ellipse cx="182" cy="193" rx="3" ry="1.4" fill="#efe6cf" stroke="#e0d3b4" stroke-width="0.5" transform="rotate(75 182 193)"/><ellipse cx="190" cy="195" rx="3" ry="1.4" fill="#efe6cf" stroke="#e0d3b4" stroke-width="0.5" transform="rotate(64 190 195)"/><ellipse cx="215" cy="222" rx="3" ry="1.4" fill="#efe6cf" stroke="#e0d3b4" stroke-width="0.5" transform="rotate(89 215 222)"/><ellipse cx="268" cy="202" rx="3" ry="1.4" fill="#efe6cf" stroke="#e0d3b4" stroke-width="0.5" transform="rotate(166 268 202)"/><ellipse cx="264" cy="198" rx="3" ry="1.4" fill="#efe6cf" stroke="#e0d3b4" stroke-width="0.5" transform="rotate(18 264 198)"/><ellipse cx="168" cy="216" rx="3" ry="1.4" fill="#efe6cf" stroke="#e0d3b4" stroke-width="0.5" transform="rotate(161 168 216)"/><ellipse cx="236" cy="188" rx="3" ry="1.4" fill="#efe6cf" stroke="#e0d3b4" stroke-width="0.5" transform="rotate(170 236 188)"/><ellipse cx="304" cy="205" rx="3" ry="1.4" fill="#efe6cf" stroke="#e0d3b4" stroke-width="0.5" transform="rotate(8 304 205)"/><ellipse cx="237" cy="194" rx="3" ry="1.4" fill="#efe6cf" stroke="#e0d3b4" stroke-width="0.5" transform="rotate(161 237 194)"/><ellipse cx="180" cy="191" rx="3" ry="1.4" fill="#efe6cf" stroke="#e0d3b4" stroke-width="0.5" transform="rotate(64 180 191)"/><ellipse cx="307" cy="214" rx="3" ry="1.4" fill="#efe6cf" stroke="#e0d3b4" stroke-width="0.5" transform="rotate(101 307 214)"/><ellipse cx="179" cy="211" rx="3" ry="1.4" fill="#efe6cf" stroke="#e0d3b4" stroke-width="0.5" transform="rotate(147 179 211)"/><ellipse cx="178" cy="200" rx="3" ry="1.4" fill="#efe6cf" stroke="#e0d3b4" stroke-width="0.5" transform="rotate(45 178 200)"/><ellipse cx="286" cy="211" rx="3" ry="1.4" fill="#efe6cf" stroke="#e0d3b4" stroke-width="0.5" transform="rotate(129 286 211)"/><ellipse cx="266" cy="200" rx="3" ry="1.4" fill="#efe6cf" stroke="#e0d3b4" stroke-width="0.5" transform="rotate(25 266 200)"/><ellipse cx="201" cy="208" rx="3" ry="1.4" fill="#efe6cf" stroke="#e0d3b4" stroke-width="0.5" transform="rotate(169 201 208)"/><ellipse cx="292" cy="188" rx="3" ry="1.4" fill="#efe6cf" stroke="#e0d3b4" stroke-width="0.5" transform="rotate(42 292 188)"/><ellipse cx="154" cy="207" rx="3" ry="1.4" fill="#efe6cf" stroke="#e0d3b4" stroke-width="0.5" transform="rotate(158 154 207)"/><ellipse cx="197" cy="210" rx="3" ry="1.4" fill="#efe6cf" stroke="#e0d3b4" stroke-width="0.5" transform="rotate(42 197 210)"/><ellipse cx="172" cy="214" rx="3" ry="1.4" fill="#efe6cf" stroke="#e0d3b4" stroke-width="0.5" transform="rotate(96 172 214)"/><ellipse cx="309" cy="220" rx="3" ry="1.4" fill="#efe6cf" stroke="#e0d3b4" stroke-width="0.5" transform="rotate(161 309 220)"/><ellipse cx="163" cy="221" rx="3" ry="1.4" fill="#efe6cf" stroke="#e0d3b4" stroke-width="0.5" transform="rotate(57 163 221)"/><ellipse cx="217" cy="199" rx="3" ry="1.4" fill="#efe6cf" stroke="#e0d3b4" stroke-width="0.5" transform="rotate(127 217 199)"/><ellipse cx="310" cy="200" rx="3" ry="1.4" fill="#efe6cf" stroke="#e0d3b4" stroke-width="0.5" transform="rotate(31 310 200)"/><ellipse cx="165" cy="202" rx="3" ry="1.4" fill="#efe6cf" stroke="#e0d3b4" stroke-width="0.5" transform="rotate(152 165 202)"/><ellipse cx="245" cy="208" rx="3" ry="1.4" fill="#efe6cf" stroke="#e0d3b4" stroke-width="0.5" transform="rotate(121 245 208)"/><rect x="257" y="195" width="8" height="8" rx="1.5" fill="#d97b2e" transform="rotate(88 257 195)"/><rect x="189" y="206" width="8" height="8" rx="1.5" fill="#d97b2e" transform="rotate(39 189 206)"/><rect x="255" y="198" width="8" height="8" rx="1.5" fill="#d97b2e" transform="rotate(1 255 198)"/><rect x="252" y="191" width="8" height="8" rx="1.5" fill="#d97b2e" transform="rotate(60 252 191)"/><rect x="269" y="205" width="8" height="8" rx="1.5" fill="#d97b2e" transform="rotate(88 269 205)"/><rect x="236" y="199" width="8" height="8" rx="1.5" fill="#d97b2e" transform="rotate(41 236 199)"/><rect x="183" y="202" width="8" height="8" rx="1.5" fill="#d97b2e" transform="rotate(48 183 202)"/><rect x="269" y="208" width="8" height="8" rx="1.5" fill="#d97b2e" transform="rotate(13 269 208)"/><rect x="211" y="196" width="8" height="8" rx="1.5" fill="#d97b2e" transform="rotate(78 211 196)"/><ellipse cx="170.8" cy="205.4" rx="3.6" ry="3.6" fill="#7f9b53" opacity="1.00"/><ellipse cx="230.8" cy="209.5" rx="3.6" ry="3.6" fill="#7f9b53" opacity="1.00"/><ellipse cx="255.8" cy="216.9" rx="3.6" ry="3.6" fill="#7f9b53" opacity="1.00"/><ellipse cx="214.6" cy="211.8" rx="3.6" ry="3.6" fill="#7f9b53" opacity="1.00"/><ellipse cx="260.4" cy="199.0" rx="3.6" ry="3.6" fill="#7f9b53" opacity="1.00"/><ellipse cx="198.6" cy="211.8" rx="3.6" ry="3.6" fill="#7f9b53" opacity="1.00"/><g transform="translate(230.0 172.0) rotate(0) scale(1.00)"><path d="M0 0 Q 11 -16 0 -32 Q -11 -16 0 0 Z" fill="#7f9b53"/><path d="M0 -3 L0 -27" stroke="#5b703c" stroke-width="1" fill="none"/></g></svg>