<svg xmlns="http://www.w3.org/2000/svg" viewBox="45 95 370 250"><ellipse cx="230.0" cy="292.0" rx="150.0" ry="30.0" fill="#000000" opacity="0.06"/><ellipse cx="230.0" cy="256.0" rx="158.0" ry="60.0" fill="#fffdf7" opacity="1.00" stroke="#d8cdb0" stroke-width="2"/><ellipse cx="230.0" cy="253.0" rx="113.8" ry="43.2" fill="none" opacity="1.00" stroke="#ece2cb" stroke-width="1"/><path d="M 170 228 Q 164 162 230 156 Q 296 162 290 228 Q 230 244 170 228 Z" fill="#5b3a29" opacity="1.00" stroke="#3f281b" stroke-width="1.6" stroke-linejoin="round" stroke-linecap="round"/><path d="M 170 228 Q 164 162 230 156 Q 296 162 290 228 Q 230 244 170 228 Z" fill="none" opacity="0.20" stroke="#ffffff" stroke-width="1" stroke-linejoin="round" stroke-linecap="round"/><circle cx="235" cy="204" r="1.1" fill="#fff7e8" opacity="0.7"/><circle cx="250" cy="169" r="1.1" fill="#fff7e8" opacity="0.7"/><circle cx="250" cy="197" r="1.1" fill="#fff7e8" opacity="0.7"/><circle cx="266" cy="197" r="1.1" fill="#fff7e8" opacity="0.7"/><circle cx="258" cy="203" r="1.1" fill="#fff7e8" opacity="0.7"/><circle cx="205" cy="196" r="1.1" fill="#fff7e8" opacity="0.7"/><circle cx="226" cy="197" r="1.1" fill="#fff7e8" opacity="0.7"/><circle cx="198" cy="167" r="1.1" fill="#fff7e8" opacity="0.7"/><circle cx="237" cy="180" r="1.1" fill="#fff7e8" opacity="0.7"/><circle cx="254" cy="203" r="1.1" fill="#fff7e8" opacity="0.7"/><circle cx="206" cy="169" r="1.1" fill="#fff7e8" opacity="0.7"/><circle cx="202" cy="168" r="1.1" fill="#fff7e8" opacity="0.7"/><circle cx="248" cy="188" r="1.1" fill="#fff7e8" opacity="0.7"/><circle cx="241" cy="199" r="1.1" fill="#fff7e8" opacity="0.7"/><circle cx="234" cy="170" r="1.1" fill="#fff7e8" opacity="0.7"/><circle cx="220" cy="181" r="1.1" fill="#fff7e8" opacity="0.7"/><circle cx="215" cy="195" r="1.1" fill="#fff7e8" opacity="0.7"/><circle cx="211" cy="204" r="1.1" fill="#fff7e8" opacity="0.7"/><circle cx="199" cy="198" r="1.1" fill="#fff7e8" opacity="0.7"/><circle cx="243" cy="188" r="1.1" fill="#fff7e8" opacity="0.7"/><circle cx="195" cy="196" r="1.1" fill="#fff7e8" opacity="0.7"/><circle cx="233" cy="183" r="1.1" fill="#fff7e8" opacity="0.7"/><circle cx="205" cy="174" r="1.1" fill="#fff7e8" opacity="0.7"/><circle cx="230" cy="173" r="1.1" fill="#fff7e8" opacity="0.7"/><circle cx="195" cy="179" r="1.1" fill="#fff7e8" opacity="0.7"/><circle cx="191" cy="190" r="1.1" fill="#fff7e8" opacity="0.7"/><path d="M 245.7 168.0 Q 245.7 168.0 243.7 172.9 Q 241.6 177.8 237.0 179.8 Q 232.4 181.7 227.2 181.9 Q 221.9 182.0 218.9 177.6 Q 215.9 173.1 215.9 168.0 Q 215.9 162.9 218.8 158.3 Q 221.8 153.7 227.3 152.8 Q 232.9 151.8 237.0 155.2 Q 241.1 158.7 243.4 163.3 Z" fill="#8a4a22" opacity="0.97"/><path d="M 222 170 q 7 28 -3 48" stroke="#7a3f1f" stroke-width="6" fill="none" stroke-linecap="round"/><ellipse cx="276.0" cy="224.0" rx="8.0" ry="8.0" fill="#b0324a" opacity="1.00"/><g transform="translate(276.0 216.0) rotate(12) scale(0.70)"><path d="M0 0 Q 11 -16 0 -32 Q -11 -16 0 0 Z" fill="#7f9b53"/><path d="M0 -3 L0 -27" stroke="#5b703c" stroke-width="1" fill="none"/></g></svg>