<svg xmlns="http://www.w3.org/2000/svg" viewBox="45 95 370 250"><ellipse cx="230.0" cy="258.0" rx="64.0" ry="14.0" fill="#000000" opacity="0.06"/><path d="M 188 152 L 196 246 Q 230 256 264 246 L 272 152 Q 230 161 188 152 Z" fill="#ffffff" opacity="0.16" stroke="#cdd4d8" stroke-width="2" stroke-linejoin="round" stroke-linecap="round"/><path d="M 191 172 L 198 244 Q 230 252 262 244 L 269 172 Q 230 180 191 172 Z" fill="#6b4636" opacity="0.96"/><path d="M 191 172 L 198 244 Q 230 252 262 244 L 269 172 Q 230 180 191 172 Z" fill="none" opacity="0.30" stroke="#4d3227" stroke-width="1" stroke-linejoin="round" stroke-linecap="round"/><ellipse cx="230.0" cy="172.0" rx="38.0" ry="9.0" fill="#f5ead6" opacity="1.00"/><path d="M 245.3 165.0 Q 245.3 165.0 244.8 171.0 Q 244.4 177.1 238.4 177.7 Q 232.3 178.3 226.5 179.8 Q 220.6 181.3 217.6 176.0 Q 214.6 170.6 215.5 165.3 Q 216.4 160.0 218.7 154.8 Q 221.1 149.6 227.2 148.1 Q 233.2 146.6 237.6 150.8 Q 241.9 155.0 243.6 160.0 Z" fill="#f7efdd" opacity="0.97"/><circle cx="222" cy="164" r="1.4" fill="#5b3a29"/><circle cx="240" cy="166" r="1.4" fill="#5b3a29"/><circle cx="225" cy="162" r="1.4" fill="#5b3a29"/><circle cx="219" cy="162" r="1.4" fill="#5b3a29"/><circle cx="241" cy="160" r="1.4" fill="#5b3a29"/><circle cx="236" cy="163" r="1.4" fill="#5b3a29"/><circle cx="222" cy="161" r="1.4" fill="#5b3a29"/><path d="M 195 160 L 203 236" stroke="#ffffff" stroke-width="3" opacity="0.5" fill="none"/><g transform="translate(236.0 156.0) rotate(12) scale(0.60)"><path d="M0 0 Q 11 -16 0 -32 Q -11 -16 0 0 Z" fill="#7f9b53"/><path d="M0 -3 L0 -27" stroke="#5b703c" stroke-width="1" fill="none"/></g></svg>