<svg xmlns="http://www.w3.org/2000/svg" viewBox="45 95 370 250"><ellipse cx="230.0" cy="292.0" rx="150.0" ry="30.0" fill="#000000" opacity="0.06"/><ellipse cx="230.0" cy="256.0" rx="158.0" ry="60.0" fill="#fffdf7" opacity="1.00" stroke="#d8cdb0" stroke-width="2"/><ellipse cx="230.0" cy="253.0" rx="113.8" ry="43.2" fill="none" opacity="1.00" stroke="#ece2cb" stroke-width="1"/><path d="M 308 250 L 324 241 L 324 157 L 308 166 Z" fill="#beb399" opacity="1.00"/><path d="M 172 218 L 308 250 L 308 166 Z" fill="#f3e6c4" opacity="1.00"/><path d="M 178 202 L 308 228" fill="none" opacity="0.90" stroke="#f9f2de" stroke-width="6" stroke-linejoin="round" stroke-linecap="round"/><path d="M 172 218 L 308 250 L 308 241 L 172 211 Z" fill="#b07d4a" opacity="1.00"/><path d="M 172 218 L 188 209 L 324 157 L 308 166 Z" fill="#f8efd6" opacity="1.00"/><path d="M 172 218 L 188 209 L 324 157 L 308 166 Z" fill="none" opacity="0.40" stroke="#3a2f25" stroke-width="1.0" stroke-linejoin="round" stroke-linecap="round"/><path d="M 172 218 L 308 250 L 308 166 Z" fill="none" opacity="0.45" stroke="#3a2f25" stroke-width="1.1" stroke-linejoin="round" stroke-linecap="round"/><ellipse cx="166.0" cy="256.0" rx="17.0" ry="17.0" fill="#8bbf4a" opacity="1.00" stroke="#648a35" stroke-width="1.2"/><ellipse cx="166.0" cy="256.0" rx="8.0" ry="8.0" fill="#d6ea9f" opacity="0.90"/><path d="M 166 256 L 155 248 M 166 256 L 177 248 M 166 256 L 166 242 M 166 256 L 155 264 M 166 256 L 177 264" fill="none" opacity="0.60" stroke="#e9f3d2" stroke-width="1" stroke-linejoin="round" stroke-linecap="round"/><g transform="translate(192.0 246.0) rotate(24) scale(0.80)"><path d="M0 0 Q 11 -16 0 -32 Q -11 -16 0 0 Z" fill="#7f9b53"/><path d="M0 -3 L0 -27" stroke="#5b703c" stroke-width="1" fill="none"/></g></svg>