<svg xmlns="http://www.w3.org/2000/svg" viewBox="45 95 370 250"><ellipse cx="230.0" cy="292.0" rx="150.0" ry="30.0" fill="#000000" opacity="0.06"/><ellipse cx="230.0" cy="256.0" rx="158.0" ry="60.0" fill="#fffdf7" opacity="1.00" stroke="#d8cdb0" stroke-width="2"/><ellipse cx="230.0" cy="253.0" rx="113.8" ry="43.2" fill="none" opacity="1.00" stroke="#ece2cb" stroke-width="1"/><path d="M 158 262 Q 158 206 230 200 Q 302 206 302 262 Q 230 274 158 262 Z" fill="#d99a4b" opacity="1.00" stroke="#9c6f36" stroke-width="1.6" stroke-linejoin="round" stroke-linecap="round"/><path d="M 172 216 Q 230 206 288 216" fill="none" opacity="0.60" stroke="#f0c277" stroke-width="3" stroke-linejoin="round" stroke-linecap="round"/><path d="M 198 212 q 7 18 0 40" stroke="#9c6f36" stroke-width="1.2" fill="none" opacity="0.7"/><path d="M 230 212 q 7 18 0 40" stroke="#9c6f36" stroke-width="1.2" fill="none" opacity="0.7"/><path d="M 262 212 q 7 18 0 40" stroke="#9c6f36" stroke-width="1.2" fill="none" opacity="0.7"/><g transform="translate(294.0 248.0) rotate(22) scale(0.90)"><path d="M0 0 Q 11 -16 0 -32 Q -11 -16 0 0 Z" fill="#7f9b53"/><path d="M0 -3 L0 -27" stroke="#5b703c" stroke-width="1" fill="none"/></g><g transform="translate(170.0 250.0) rotate(-24) scale(0.80)"><path d="M0 0 Q 11 -16 0 -32 Q -11 -16 0 0 Z" fill="#7f9b53"/><path d="M0 -3 L0 -27" stroke="#5b703c" stroke-width="1" fill="none"/></g></svg>