<svg xmlns="http://www.w3.org/2000/svg" viewBox="45 95 370 250"><ellipse cx="230.0" cy="256.0" rx="96.0" ry="18.0" fill="#000000" opacity="0.06"/><ellipse cx="230.0" cy="234.0" rx="104.0" ry="22.0" fill="#fffdf7" opacity="1.00" stroke="#d8cdb0" stroke-width="2"/><path d="M 180 170 Q 174 222 200 230 L 260 230 Q 286 222 280 170 Z" fill="#fdfaf3" opacity="1.00" stroke="#3a2f25" stroke-width="1.6" stroke-linejoin="round" stroke-linecap="round"/><ellipse cx="230.0" cy="170.0" rx="50.0" ry="13.0" fill="#c98a3a" opacity="1.00"/><ellipse cx="230.0" cy="170.0" rx="50.0" ry="13.0" fill="none" opacity="0.80" stroke="#91632a" stroke-width="1"/><ellipse cx="214.0" cy="168.0" rx="16.0" ry="4.0" fill="#e0ab64" opacity="0.70"/><path d="M 280 182 q 30 2 28 26 q -2 20 -26 16" fill="none" stroke="#3a2f25" stroke-width="3.4"/><path d="M 214 154 q 9 -11 0 -22 q -9 -11 0 -22" fill="none" stroke="#cdbfa0" stroke-width="2" opacity="0.7"/><path d="M 230 154 q 9 -11 0 -22 q -9 -11 0 -22" fill="none" stroke="#cdbfa0" stroke-width="2" opacity="0.7"/><path d="M 246 154 q 9 -11 0 -22 q -9 -11 0 -22" fill="none" stroke="#cdbfa0" stroke-width="2" opacity="0.7"/><ellipse cx="294.0" cy="194.0" rx="14.0" ry="14.0" fill="#e8c24b" opacity="1.00" stroke="#a78c36" stroke-width="1"/><g transform="translate(166.0 204.0) rotate(-28) scale(0.80)"><path d="M0 0 Q 11 -16 0 -32 Q -11 -16 0 0 Z" fill="#7f9b53"/><path d="M0 -3 L0 -27" stroke="#5b703c" stroke-width="1" fill="none"/></g></svg>