<svg xmlns="http://www.w3.org/2000/svg" viewBox="45 95 370 250"><ellipse cx="230.0" cy="292.0" rx="150.0" ry="30.0" fill="#000000" opacity="0.06"/><ellipse cx="230.0" cy="256.0" rx="158.0" ry="60.0" fill="#fffdf7" opacity="1.00" stroke="#d8cdb0" stroke-width="2"/><ellipse cx="230.0" cy="253.0" rx="113.8" ry="43.2" fill="none" opacity="1.00" stroke="#ece2cb" stroke-width="1"/><path d="M 308 250 L 324 241 L 324 157 L 308 166 Z" fill="#b59c5f" opacity="1.00"/><path d="M 172 218 L 308 250 L 308 166 Z" fill="#e8c87a" opacity="1.00"/><path d="M 178 202 L 308 228" fill="none" opacity="0.90" stroke="#f5ecd3" stroke-width="6" stroke-linejoin="round" stroke-linecap="round"/><path d="M 172 218 L 188 209 L 324 157 L 308 166 Z" fill="#f3e7c8" opacity="1.00"/><path d="M 172 218 L 188 209 L 324 157 L 308 166 Z" fill="none" opacity="0.40" stroke="#3a2f25" stroke-width="1.0" stroke-linejoin="round" stroke-linecap="round"/><path d="M 172 218 L 308 250 L 308 166 Z" fill="none" opacity="0.45" stroke="#3a2f25" stroke-width="1.1" stroke-linejoin="round" stroke-linecap="round"/><path d="M 146 262 Q 168 236 192 258 Q 172 268 146 262 Z" fill="#e8c24b" opacity="1.00" stroke="#a78c36" stroke-width="1.4" stroke-linejoin="round" stroke-linecap="round"/></svg>