<svg xmlns="http://www.w3.org/2000/svg" viewBox="45 95 370 250"><ellipse cx="230.0" cy="292.0" rx="150.0" ry="30.0" fill="#000000" opacity="0.06"/><ellipse cx="230.0" cy="256.0" rx="158.0" ry="60.0" fill="#fffdf7" opacity="1.00" stroke="#d8cdb0" stroke-width="2"/><ellipse cx="230.0" cy="253.0" rx="113.8" ry="43.2" fill="none" opacity="1.00" stroke="#ece2cb" stroke-width="1"/><path d="M 308 250 L 324 241 L 324 157 L 308 166 Z" fill="#9d6c3e" opacity="1.00"/><path d="M 172 218 L 308 250 L 308 166 Z" fill="#c98a4f" opacity="1.00"/><path d="M 178 202 L 308 228" fill="none" opacity="0.90" stroke="#fcf5e9" stroke-width="6" stroke-linejoin="round" stroke-linecap="round"/><path d="M 172 218 L 188 209 L 324 157 L 308 166 Z" fill="#fbf3e3" opacity="1.00"/><path d="M 172 218 L 188 209 L 324 157 L 308 166 Z" fill="none" opacity="0.40" stroke="#3a2f25" stroke-width="1.0" stroke-linejoin="round" stroke-linecap="round"/><path d="M 172 218 L 308 250 L 308 166 Z" fill="none" opacity="0.45" stroke="#3a2f25" stroke-width="1.1" stroke-linejoin="round" stroke-linecap="round"/><path d="M 152 248 L 186 254 L 156 266 Z" fill="#d97b2e" opacity="1.00" stroke="#9c5921" stroke-width="1.2" stroke-linejoin="round" stroke-linecap="round"/><g transform="translate(149.6 246.0) rotate(-6) scale(0.50)"><path d="M0 0 Q 11 -16 0 -32 Q -11 -16 0 0 Z" fill="#7f9b53"/><path d="M0 -3 L0 -27" stroke="#5b703c" stroke-width="1" fill="none"/></g><g transform="translate(152.0 246.0) rotate(0) scale(0.50)"><path d="M0 0 Q 11 -16 0 -32 Q -11 -16 0 0 Z" fill="#7f9b53"/><path d="M0 -3 L0 -27" stroke="#5b703c" stroke-width="1" fill="none"/></g><g transform="translate(154.4 246.0) rotate(6) scale(0.50)"><path d="M0 0 Q 11 -16 0 -32 Q -11 -16 0 0 Z" fill="#7f9b53"/><path d="M0 -3 L0 -27" stroke="#5b703c" stroke-width="1" fill="none"/></g></svg>