<svg xmlns="http://www.w3.org/2000/svg" viewBox="45 95 370 250"><ellipse cx="230.0" cy="292.0" rx="150.0" ry="30.0" fill="#000000" opacity="0.06"/><ellipse cx="230.0" cy="256.0" rx="158.0" ry="60.0" fill="#fffdf7" opacity="1.00" stroke="#d8cdb0" stroke-width="2"/><ellipse cx="230.0" cy="253.0" rx="113.8" ry="43.2" fill="none" opacity="1.00" stroke="#ece2cb" stroke-width="1"/><path d="M 150 236 Q 176 244 202 236 L 182 189.94900749890584 Q 176 182.94900749890584 170 189.94900749890584 Z" fill="#f0e6d2" opacity="1.00" stroke="#3a2f25" stroke-width="1.1" stroke-linejoin="round" stroke-linecap="round"/><circle cx="193" cy="223" r="1.1" fill="#cbb085" opacity="0.85"/><circle cx="193" cy="228" r="1.1" fill="#cbb085" opacity="0.85"/><circle cx="180" cy="230" r="1.1" fill="#cbb085" opacity="0.85"/><circle cx="186" cy="210" r="1.1" fill="#cbb085" opacity="0.85"/><circle cx="188" cy="227" r="1.1" fill="#cbb085" opacity="0.85"/><circle cx="185" cy="197" r="1.1" fill="#cbb085" opacity="0.85"/><circle cx="180" cy="207" r="1.1" fill="#cbb085" opacity="0.85"/><circle cx="181" cy="227" r="1.1" fill="#cbb085" opacity="0.85"/><circle cx="176" cy="232" r="1.1" fill="#cbb085" opacity="0.85"/><circle cx="171" cy="206" r="1.1" fill="#cbb085" opacity="0.85"/><circle cx="184" cy="224" r="1.1" fill="#cbb085" opacity="0.85"/><circle cx="165" cy="198" r="1.1" fill="#cbb085" opacity="0.85"/><circle cx="165" cy="229" r="1.1" fill="#cbb085" opacity="0.85"/><circle cx="187" cy="207" r="1.1" fill="#cbb085" opacity="0.85"/><circle cx="168" cy="215" r="1.1" fill="#cbb085" opacity="0.85"/><circle cx="161" cy="207" r="1.1" fill="#cbb085" opacity="0.85"/><path d="M 169 198.94900749890584 Q 176 182.94900749890584 183 198.94900749890584 Z" fill="#b07d4a" opacity="1.00"/><path d="M 206 236 Q 232 244 258 236 L 238 189.27884995935014 Q 232 182.27884995935014 226 189.27884995935014 Z" fill="#f0e6d2" opacity="1.00" stroke="#3a2f25" stroke-width="1.1" stroke-linejoin="round" stroke-linecap="round"/><circle cx="222" cy="198" r="1.1" fill="#cbb085" opacity="0.85"/><circle cx="246" cy="199" r="1.1" fill="#cbb085" opacity="0.85"/><circle cx="219" cy="215" r="1.1" fill="#cbb085" opacity="0.85"/><circle cx="242" cy="214" r="1.1" fill="#cbb085" opacity="0.85"/><circle cx="248" cy="213" r="1.1" fill="#cbb085" opacity="0.85"/><circle cx="240" cy="223" r="1.1" fill="#cbb085" opacity="0.85"/><circle cx="240" cy="233" r="1.1" fill="#cbb085" opacity="0.85"/><circle cx="252" cy="205" r="1.1" fill="#cbb085" opacity="0.85"/><circle cx="225" cy="224" r="1.1" fill="#cbb085" opacity="0.85"/><circle cx="227" cy="234" r="1.1" fill="#cbb085" opacity="0.85"/><circle cx="227" cy="201" r="1.1" fill="#cbb085" opacity="0.85"/><circle cx="230" cy="227" r="1.1" fill="#cbb085" opacity="0.85"/><circle cx="248" cy="226" r="1.1" fill="#cbb085" opacity="0.85"/><circle cx="235" cy="231" r="1.1" fill="#cbb085" opacity="0.85"/><circle cx="241" cy="219" r="1.1" fill="#cbb085" opacity="0.85"/><circle cx="239" cy="197" r="1.1" fill="#cbb085" opacity="0.85"/><path d="M 225 198.27884995935014 Q 232 182.27884995935014 239 198.27884995935014 Z" fill="#b07d4a" opacity="1.00"/><path d="M 260 236 Q 286 244 312 236 L 292 189.8275033212479 Q 286 182.8275033212479 280 189.8275033212479 Z" fill="#f0e6d2" opacity="1.00" stroke="#3a2f25" stroke-width="1.1" stroke-linejoin="round" stroke-linecap="round"/><circle cx="289" cy="207" r="1.1" fill="#cbb085" opacity="0.85"/><circle cx="306" cy="209" r="1.1" fill="#cbb085" opacity="0.85"/><circle cx="268" cy="206" r="1.1" fill="#cbb085" opacity="0.85"/><circle cx="288" cy="210" r="1.1" fill="#cbb085" opacity="0.85"/><circle cx="277" cy="229" r="1.1" fill="#cbb085" opacity="0.85"/><circle cx="303" cy="228" r="1.1" fill="#cbb085" opacity="0.85"/><circle cx="294" cy="217" r="1.1" fill="#cbb085" opacity="0.85"/><circle cx="292" cy="225" r="1.1" fill="#cbb085" opacity="0.85"/><circle cx="292" cy="232" r="1.1" fill="#cbb085" opacity="0.85"/><circle cx="287" cy="200" r="1.1" fill="#cbb085" opacity="0.85"/><circle cx="270" cy="215" r="1.1" fill="#cbb085" opacity="0.85"/><circle cx="288" cy="227" r="1.1" fill="#cbb085" opacity="0.85"/><circle cx="293" cy="228" r="1.1" fill="#cbb085" opacity="0.85"/><circle cx="270" cy="217" r="1.1" fill="#cbb085" opacity="0.85"/><circle cx="283" cy="228" r="1.1" fill="#cbb085" opacity="0.85"/><circle cx="300" cy="217" r="1.1" fill="#cbb085" opacity="0.85"/><path d="M 279 198.8275033212479 Q 286 182.8275033212479 293 198.8275033212479 Z" fill="#b07d4a" opacity="1.00"/></svg>