<svg xmlns="http://www.w3.org/2000/svg" viewBox="0 0 680 950">
<g fill="none" stroke="#f4ead2" stroke-width="1.6" stroke-linejoin="round" stroke-linecap="round" opacity="0.55">
<g transform="translate(71 59) rotate(5) scale(1.26)"><circle cx="0" cy="0" r="26"/><circle cx="0" cy="0" r="17"/></g>
<g transform="translate(229 66) rotate(3) scale(0.97)"><path d="M-18 22 Q -26 -10 0 -24 Q 26 -10 18 22 Z"/></g>
<g transform="translate(360 66) rotate(7) scale(0.95)"><path d="M-18 22 Q -26 -10 0 -24 Q 26 -10 18 22 Z"/></g>
<g transform="translate(502 60) rotate(-24) scale(1.36)"><path d="M-22 -10 Q 0 -28 22 -10 Q 0 18 -22 -10 Z"/><path d="M0 -22 L0 12"/></g>
<g transform="translate(56 172) rotate(18) scale(1.16)"><path d="M-18 22 Q -26 -10 0 -24 Q 26 -10 18 22 Z"/></g>
<g transform="translate(357 199) rotate(11) scale(1.22)"><path d="M-22 -10 Q 0 -28 22 -10 Q 0 18 -22 -10 Z"/><path d="M0 -22 L0 12"/></g>
<g transform="translate(590 184) rotate(23) scale(1.13)"><path d="M-18 22 Q -26 -10 0 -24 Q 26 -10 18 22 Z"/></g>
<g transform="translate(224 344) rotate(2) scale(1.11)"><path d="M-22 -10 Q 0 -28 22 -10 Q 0 18 -22 -10 Z"/><path d="M0 -22 L0 12"/></g>
<g transform="translate(502 364) rotate(25) scale(1.29)"><path d="M-22 -10 Q 0 -28 22 -10 Q 0 18 -22 -10 Z"/><path d="M0 -22 L0 12"/></g>
<g transform="translate(602 342) rotate(4) scale(0.92)"><path d="M-18 22 Q -26 -10 0 -24 Q 26 -10 18 22 Z"/></g>
<g transform="translate(88 480) rotate(-11) scale(0.89)"><path d="M-18 22 Q -26 -10 0 -24 Q 26 -10 18 22 Z"/></g>
<g transform="translate(358 469) rotate(-17) scale(1.04)"><rect x="-16" y="-22" width="32" height="44" rx="6"/><rect x="-10" y="-30" width="20" height="10"/></g>
<g transform="translate(619 444) rotate(11) scale(1.07)"><path d="M-4 -26 L-4 26 M4 -26 L4 26 M-12 -26 L-12 -6 Q -12 4 -4 4"/></g>
<g transform="translate(98 598) rotate(-21) scale(1.24)"><circle cx="0" cy="0" r="26"/><circle cx="0" cy="0" r="17"/></g>
<g transform="translate(462 624) rotate(24) scale(1.07)"><path d="M-4 -26 L-4 26 M4 -26 L4 26 M-12 -26 L-12 -6 Q -12 4 -4 4"/></g>
<g transform="translate(202 748) rotate(7) scale(1.24)"><ellipse cx="0" cy="0" rx="24" ry="14"/><path d="M-24 0 Q 0 22 24 0"/></g>
<g transform="translate(368 768) rotate(-11) scale(1.26)"><path d="M-18 22 Q -26 -10 0 -24 Q 26 -10 18 22 Z"/></g>
<g transform="translate(464 779) rotate(1) scale(1.21)"><circle cx="0" cy="0" r="26"/><circle cx="0" cy="0" r="17"/></g>
<g transform="translate(197 888) rotate(-18) scale(1.26)"><path d="M-4 -26 L-4 26 M4 -26 L4 26 M-12 -26 L-12 -6 Q -12 4 -4 4"/></g>
<g transform="translate(351 872) rotate(10) scale(1.33)"><circle cx="0" cy="0" r="26"/><circle cx="0" cy="0" r="17"/></g>
<g transform="translate(503 850) rotate(-7) scale(1.26)"><path d="M-4 -26 L-4 26 M4 -26 L4 26 M-12 -26 L-12 -6 Q -12 4 -4 4"/></g>
<g transform="translate(601 873) rotate(-9) scale(1.09)"><ellipse cx="0" cy="0" rx="24" ry="14"/><path d="M-24 0 Q 0 22 24 0"/></g>
</g></svg>