<svg xmlns="http://www.w3.org/2000/svg" viewBox="0 0 680 950">
<g fill="none" stroke="#f4ead2" stroke-width="1.6" stroke-linejoin="round" stroke-linecap="round" opacity="0.55">
<g transform="translate(315 91) rotate(12) scale(1.29)"><path d="M-4 -26 L-4 26 M4 -26 L4 26 M-12 -26 L-12 -6 Q -12 4 -4 4"/></g>
<g transform="translate(459 36) rotate(9) scale(1.50)"><path d="M-18 22 Q -26 -10 0 -24 Q 26 -10 18 22 Z"/></g>
<g transform="translate(625 102) rotate(22) scale(1.20)"><rect x="-16" y="-22" width="32" height="44" rx="6"/><rect x="-10" y="-30" width="20" height="10"/></g>
<g transform="translate(92 229) rotate(-7) scale(1.46)"><rect x="-16" y="-22" width="32" height="44" rx="6"/><rect x="-10" y="-30" width="20" height="10"/></g>
<g transform="translate(227 181) rotate(-16) scale(1.00)"><path d="M-22 -10 Q 0 -28 22 -10 Q 0 18 -22 -10 Z"/><path d="M0 -22 L0 12"/></g>
<g transform="translate(318 204) rotate(25) scale(1.29)"><path d="M-22 -10 Q 0 -28 22 -10 Q 0 18 -22 -10 Z"/><path d="M0 -22 L0 12"/></g>
<g transform="translate(607 205) rotate(20) scale(1.09)"><ellipse cx="0" cy="0" rx="24" ry="14"/><path d="M-24 0 Q 0 22 24 0"/></g>
<g transform="translate(97 371) rotate(-17) scale(1.34)"><path d="M-18 22 Q -26 -10 0 -24 Q 26 -10 18 22 Z"/></g>
<g transform="translate(213 322) rotate(-11) scale(1.17)"><ellipse cx="0" cy="0" rx="24" ry="14"/><path d="M-24 0 Q 0 22 24 0"/></g>
<g transform="translate(499 366) rotate(-2) scale(1.22)"><ellipse cx="0" cy="0" rx="24" ry="14"/><path d="M-24 0 Q 0 22 24 0"/></g>
<g transform="translate(611 320) rotate(-9) scale(1.30)"><path d="M-22 -10 Q 0 -28 22 -10 Q 0 18 -22 -10 Z"/><path d="M0 -22 L0 12"/></g>
<g transform="translate(220 474) rotate(-10) scale(1.37)"><ellipse cx="0" cy="0" rx="24" ry="14"/><path d="M-24 0 Q 0 22 24 0"/></g>
<g transform="translate(340 483) rotate(-5) scale(1.33)"><rect x="-16" y="-22" width="32" height="44" rx="6"/><rect x="-10" y="-30" width="20" height="10"/></g>
<g transform="translate(502 483) rotate(-21) scale(1.38)"><path d="M-18 22 Q -26 -10 0 -24 Q 26 -10 18 22 Z"/></g>
<g transform="translate(631 509) rotate(-20) scale(1.22)"><circle cx="0" cy="0" r="26"/><circle cx="0" cy="0" r="17"/></g>
<g transform="translate(52 636) rotate(-20) scale(1.19)"><path d="M-4 -26 L-4 26 M4 -26 L4 26 M-12 -26 L-12 -6 Q -12 4 -4 4"/></g>
<g transform="translate(187 637) rotate(-4) scale(1.32)"><circle cx="0" cy="0" r="26"/><circle cx="0" cy="0" r="17"/></g>
<g transform="translate(332 594) rotate(-24) scale(0.92)"><circle cx="0" cy="0" r="26"/><circle cx="0" cy="0" r="17"/></g>
<g transform="translate(490 578) rotate(-12) scale(1.38)"><path d="M-22 -10 Q 0 -28 22 -10 Q 0 18 -22 -10 Z"/><path d="M0 -22 L0 12"/></g>
<g transform="translate(613 577) rotate(4) scale(1.37)"><path d="M-22 -10 Q 0 -28 22 -10 Q 0 18 -22 -10 Z"/><path d="M0 -22 L0 12"/></g>
<g transform="translate(40 736) rotate(6) scale(1.33)"><circle cx="0" cy="0" r="26"/><circle cx="0" cy="0" r="17"/></g>
<g transform="translate(203 733) rotate(3) scale(1.24)"><circle cx="0" cy="0" r="26"/><circle cx="0" cy="0" r="17"/></g>
<g transform="translate(498 760) rotate(-1) scale(1.00)"><path d="M-18 22 Q -26 -10 0 -24 Q 26 -10 18 22 Z"/></g>
<g transform="translate(632 714) rotate(14) scale(1.47)"><ellipse cx="0" cy="0" rx="24" ry="14"/><path d="M-24 0 Q 0 22 24 0"/></g>
<g transform="translate(62 883) rotate(-18) scale(1.47)"><path d="M-4 -26 L-4 26 M4 -26 L4 26 M-12 -26 L-12 -6 Q -12 4 -4 4"/></g>
<g transform="translate(232 893) rotate(10) scale(1.47)"><path d="M-18 22 Q -26 -10 0 -24 Q 26 -10 18 22 Z"/></g>
<g transform="translate(312 859) rotate(-20) scale(1.26)"><ellipse cx="0" cy="0" rx="24" ry="14"/><path d="M-24 0 Q 0 22 24 0"/></g>
<g transform="translate(584 865) rotate(11) scale(0.90)"><circle cx="0" cy="0" r="26"/><circle cx="0" cy="0" r="17"/></g>
</g></svg>